<svg width="24" height="24" viewBox="0 0 24 24" fill="none" xmlns="http://www.w3.org/2000/svg">
<path d="M2 12C2 14.6522 3.05357 17.1957 4.92893 19.0711C6.8043 20.9464 9.34784 22 12 22C14.6522 22 17.1957 20.9464 19.0711 19.0711C20.9464 17.1957 22 14.6522 22 12C22 9.34784 20.9464 6.8043 19.0711 4.92893C17.1957 3.05357 14.6522 2 12 2C9.34784 2 6.8043 3.05357 4.92893 4.92893C3.05357 6.8043 2 9.34784 2 12Z" fill="#767EF0"/>
<path d="M5.72885 6.57626H18.2712V15.8983H5.72885V6.57626Z" fill="white"/>
<path d="M15.6361 20.2085L5.07223 18.8525C3.93102 18.7061 3.9902 15.1188 4.09059 13.9726L4.59907 8.16752C4.69946 7.02131 6.05133 5.81948 7.19086 5.66045L16.301 4.38926C17.4406 4.23028 19.7628 8.54258 19.7403 9.69293L19.5708 18.3865M12.0002 7.86666C9.76686 7.86666 8.2002 8.82501 8.2002 8.82501C9.05854 8.05834 10.5585 7.61666 10.5585 7.61666L10.4169 7.47501C9.00854 7.50001 7.73354 8.475 7.73354 8.475C6.3002 11.4667 6.39186 14.05 6.39186 14.05C7.55854 15.5583 9.29186 15.45 9.29186 15.45L9.88354 14.7C8.84186 14.475 8.18354 13.55 8.18354 13.55C8.18354 13.55 9.7502 14.6167 12.0002 14.6167C14.2502 14.6167 15.8169 13.55 15.8169 13.55C15.8169 13.55 15.1585 14.475 14.1169 14.7L14.7085 15.45C14.7085 15.45 16.4419 15.5583 17.6085 14.05C17.6085 14.05 17.7002 11.4667 16.2669 8.475C16.2669 8.475 14.9919 7.50001 13.5835 7.47501L13.4419 7.61666C13.4419 7.61666 14.9419 8.05834 15.8002 8.82501C15.8002 8.82501 14.2335 7.86666 12.0002 7.86666ZM10.2752 11.025C10.8169 11.025 11.2585 11.5 11.2502 12.0833C11.2502 12.6583 10.8169 13.1417 10.2752 13.1417C9.74186 13.1417 9.30854 12.6583 9.30854 12.0833C9.30854 11.5 9.73354 11.025 10.2752 11.025ZM13.7502 11.025C14.2919 11.025 14.7252 11.5 14.7252 12.0833C14.7252 12.6583 14.2919 13.1417 13.7502 13.1417C13.2169 13.1417 12.7835 12.6583 12.7835 12.0833C12.7835 11.5 13.2085 11.025 13.7502 11.025Z" fill="#767EF0"/>
</svg>
