<svg width="24" height="24" viewBox="0 0 24 24" fill="none" xmlns="http://www.w3.org/2000/svg">
<path d="M12 2C6.47768 2 2 6.47768 2 12C2 17.5223 6.47768 22 12 22C17.5223 22 22 17.5223 22 12C22 6.47768 17.5223 2 12 2Z" fill="#4A99E9"/>
<path d="M16.8058 9.53796C16.8125 9.64287 16.8125 9.75224 16.8125 9.85938C16.8125 13.1362 14.317 16.9107 9.75671 16.9107C8.35046 16.9107 7.04688 16.5022 5.94867 15.7991C6.14956 15.8214 6.34153 15.8304 6.54688 15.8304C7.7076 15.8304 8.77456 15.4375 9.62501 14.7723C8.53572 14.75 7.62054 14.0357 7.30804 13.0536C7.68974 13.1094 8.03349 13.1094 8.42635 13.0089C7.29242 12.779 6.44197 11.7813 6.44197 10.5759V10.5447C6.7701 10.7299 7.15626 10.8438 7.56028 10.8594C6.87054 10.3996 6.45537 9.62501 6.45537 8.79688C6.45537 8.33483 6.5759 7.91296 6.79242 7.54688C8.0134 9.05135 9.84822 10.0335 11.904 10.1384C11.5536 8.45313 12.8125 7.08929 14.3259 7.08929C15.0402 7.08929 15.683 7.3884 16.1362 7.87054C16.6964 7.76563 17.2322 7.55581 17.7098 7.27456C17.5246 7.84822 17.1362 8.3326 16.6205 8.6384C17.1205 8.58483 17.6027 8.44644 18.0491 8.25224C17.7121 8.74778 17.2902 9.18751 16.8058 9.53796Z" fill="white"/>
</svg>
